<?xml version="1.0" encoding="utf-8"?>
<!-- Generator: Adobe Illustrator 18.1.0, SVG Export Plug-In . SVG Version: 6.00 Build 0)  -->
<!DOCTYPE svg PUBLIC "-//W3C//DTD SVG 1.1//EN" "http://www.w3.org/Graphics/SVG/1.1/DTD/svg11.dtd">
<svg version="1.1" id="Layer_1" xmlns="http://www.w3.org/2000/svg" xmlns:xlink="http://www.w3.org/1999/xlink" x="0px" y="0px"
	 viewBox="0 0 50 50" enable-background="new 0 0 50 50" xml:space="preserve">
<path fill="#C0C0C0" d="M25,1.6C12.2,1.5,1.8,12,1.8,25c0,13,10.4,23.5,23.2,23.5C37.8,48.5,48.2,38,48.2,25
	C48.2,12,37.8,1.5,25,1.6z M25,43C15.1,43,7.1,35,7.1,25c0-10,8-18,17.9-18c9.9,0,17.9,8.1,17.9,18C42.9,35,34.9,43,25,43z"/>
<path fill="#58595B" d="M23,31.7l4.3,0v-3.3c0-0.9,0.4-1.7,1.5-2.5c1.1-0.7,4.2-2.2,4.2-6.1c0-3.9-3.3-6.6-6-7.2
	c-2.7-0.6-5.7-0.2-7.8,2.1c-1.9,2.1-2.3,3.7-2.3,7.3h4.3v-0.8c0-1.9,0.2-4,3-4.5c1.5-0.3,2.9,0.2,3.8,1c0.9,0.9,1,3-0.6,4.1
	l-2.4,1.6c-1.4,0.9-1.9,1.9-1.9,3.3L23,31.7L23,31.7z"/>
<polygon fill="#58595B" points="23,37.8 23,33.4 27.3,33.4 27.3,37.8 "/>
</svg>
