<?xml version="1.0" encoding="utf-8"?>
<!-- Generator: Adobe Illustrator 18.1.0, SVG Export Plug-In . SVG Version: 6.00 Build 0)  -->
<!DOCTYPE svg PUBLIC "-//W3C//DTD SVG 1.1//EN" "http://www.w3.org/Graphics/SVG/1.1/DTD/svg11.dtd">
<svg version="1.1" id="Layer_1" xmlns="http://www.w3.org/2000/svg" xmlns:xlink="http://www.w3.org/1999/xlink" x="0px" y="0px"
	 viewBox="0 0 50 50" enable-background="new 0 0 50 50" xml:space="preserve">
<circle fill="#FFFFFF" cx="25" cy="22.3" r="18.6"/>
<g>
	<path fill="#58595B" d="M17.6,14.1v4.8h-4.8l0,9.9l0,0.1l0,0.1c0.1,1,1,2.9,3.5,2.9l17.2,0c2.3,0,3.2-1.9,3.2-3.1V14.1H17.6z
		 M17.3,29.8c-0.2,0.2-0.6,0.3-1.1,0.3c-1.5,0-1.8-1.1-1.9-1.4l0-8.2h3.2v1.6h-1.4v1.7h1.4v2.2h-1.4v1.7h1.4v1.1l0,0.1
		C17.6,29,17.6,29.5,17.3,29.8z M35,28.7c0,0.2-0.1,1.5-1.5,1.5H19c0.2-0.6,0.2-1.2,0.2-1.4v-13H35V28.7z"/>
	<rect x="21.5" y="18.3" fill="#58595B" width="11.9" height="1.7"/>
	<rect x="21.5" y="22.2" fill="#58595B" width="11.9" height="1.7"/>
	<rect x="21.5" y="26.1" fill="#58595B" width="11.9" height="1.7"/>
</g>
<path fill="#C0C0C0" d="M25,1.3c-11.6,0-21,9.4-21,21c0,9.3,6.1,17.3,14.6,20l6.4,6.4l6.4-6.4c8.4-2.7,14.6-10.7,14.6-20
	C46,10.7,36.6,1.3,25,1.3z M25,40.1c-9.8,0-17.8-8-17.8-17.8c0-9.8,8-17.8,17.8-17.8s17.8,8,17.8,17.8C42.8,32.2,34.8,40.1,25,40.1z
	"/>
</svg>
